<svg width="73" height="72" viewBox="0 0 73 72" fill="none" xmlns="http://www.w3.org/2000/svg">
<g clip-path="url(#clip0_1_32605)">
<path fill-rule="evenodd" clip-rule="evenodd" d="M71.5 36.9792C71.5 53.0167 71.5 61.0356 66.5178 66.0175C61.5353 71 53.5166 71 37.4791 71H34.5207C18.4834 71 10.4644 71 5.48221 66.0175C0.5 61.0356 0.5 53.0167 0.5 36.9792V34.0208C0.5 17.9833 0.5 9.96438 5.48221 4.98248C10.4644 0 18.4834 0 34.5207 0H37.4791C53.5166 0 61.5353 0 66.5178 4.98248C71.5 9.96438 71.5 17.9833 71.5 34.0208V36.9792Z" fill="#0077FF"/>
<mask id="mask0_1_32605" style="mask-type:luminance" maskUnits="userSpaceOnUse" x="0" y="0" width="72" height="71">
<path fill-rule="evenodd" clip-rule="evenodd" d="M71.5 36.9792C71.5 53.0167 71.5 61.0356 66.5178 66.0175C61.5353 71 53.5166 71 37.4791 71H34.5207C18.4834 71 10.4644 71 5.48221 66.0175C0.5 61.0356 0.5 53.0167 0.5 36.9792V34.0208C0.5 17.9833 0.5 9.96438 5.48221 4.98248C10.4644 0 18.4834 0 34.5207 0H37.4791C53.5166 0 61.5353 0 66.5178 4.98248C71.5 9.96438 71.5 17.9833 71.5 34.0208V36.9792Z" fill="white"/>
</mask>
<g mask="url(#mask0_1_32605)">
<path d="M35.6443 45.4102L2.53163 60.6068C2.02514 60.8392 1.76561 61.4078 1.92184 61.9428L3.55308 67.528C3.80279 68.383 4.3918 69.0984 5.18294 69.5076L8.26109 71.0996C8.42061 71.1821 8.59758 71.2251 8.77717 71.2251H63.9691C64.1969 71.2251 64.4194 71.1559 64.6069 71.0265L66.2943 69.863C67.2441 69.2079 67.9586 68.2652 68.3324 67.1736L70.0314 62.2114C70.2171 61.6691 69.9647 61.074 69.4458 60.8305L36.59 45.4142C36.2907 45.2737 35.9448 45.2723 35.6443 45.4102Z" fill="url(#paint0_linear_1_32605)" stroke="#6BE9C7" stroke-width="0.449367"/>
<path fill-rule="evenodd" clip-rule="evenodd" d="M30.9286 25.4281C30.9286 22.7572 33.1992 20.5921 36 20.5921C38.8009 20.5921 41.0715 22.7572 41.0715 25.4281C41.0715 28.3471 39.6761 30.2481 37.4591 32.7163C37.2843 32.9108 37.0949 33.1167 36.895 33.3339C35.2988 35.0687 33.033 37.5313 32.1866 40.8066L-2.57042 56.3069C-6.88563 58.2313 -9.64282 62.3635 -9.64282 66.9061C-9.64282 73.3684 -4.14905 78.6072 2.62785 78.6072H69.3722C76.1491 78.6072 81.6429 73.3684 81.6429 66.9061C81.6429 62.3635 78.8857 58.2313 74.5705 56.3069L40.8908 41.287C41.4536 40.4427 42.3718 39.4116 43.7618 37.8642C46.1551 35.1997 49.3702 31.3952 49.3702 25.4281C49.3702 18.3867 43.3842 12.6786 36 12.6786C28.6159 12.6786 22.6299 18.3867 22.6299 25.4281C22.6299 27.6133 24.4876 29.3848 26.7793 29.3848C29.0709 29.3848 30.9286 27.6133 30.9286 25.4281ZM0.945181 63.4752L32.9017 49.2238C34.8736 48.3444 37.1264 48.3444 39.0984 49.2238L71.0549 63.4752C72.4517 64.0981 73.3442 65.4357 73.3442 66.9061C73.3442 68.9979 71.5659 70.6937 69.3722 70.6937H2.62785C0.434186 70.6937 -1.34412 68.9979 -1.34412 66.9061C-1.34412 65.4357 -0.451631 64.0981 0.945181 63.4752Z" fill="white"/>
</g>
</g>
<defs>
<linearGradient id="paint0_linear_1_32605" x1="35.9999" y1="45.4404" x2="35.9999" y2="71.0004" gradientUnits="userSpaceOnUse">
<stop stop-color="#6BE9C7"/>
<stop offset="1" stop-color="#44D0AA"/>
</linearGradient>
<clipPath id="clip0_1_32605">
<rect width="72" height="72" fill="white" transform="translate(0.5)"/>
</clipPath>
</defs>
</svg>
